<svg id="Layer_35" enable-background="new 0 0 64 64" height="512" viewBox="0 0 64 64" width="512" xmlns="http://www.w3.org/2000/svg"><g fill="#f0bc5e"><circle cx="49" cy="15" r="10"/><path d="m18.12 33.965c-5.664-.448-10.12-5.186-10.12-10.965 0-6.075 4.925-11 11-11 2.624 0 5.033.919 6.924 2.452l-.006.015c.635-.293 1.336-.467 2.082-.467 1.831 0 3.416.995 4.287 2.464l.207-.436 1.918-3.072-5.365-5.365-2.303 1.425c-1.056-.586-2.172-1.049-3.332-1.381l-.62-2.635h-7.584l-.62 2.634c-1.16.333-2.276.795-3.332 1.381l-2.303-1.424-5.363 5.363 1.426 2.302c-.586 1.057-1.049 2.173-1.381 3.332l-2.635.62v7.584l2.635.62c.332 1.159.795 2.275 1.381 3.332l-1.426 2.303 5.363 5.363 2.303-1.426c1.057.586 2.173 1.049 3.332 1.381l.62 2.635h1.792v-1.095z"/><path d="m28 24h.707l.036-.075c-.245.037-.489.075-.743.075z"/></g><path d="m49 1c-7.72 0-14 6.28-14 14 0 3.011.954 5.731 2.761 8h-5.301c.954-1.063 1.54-2.462 1.54-4 0-3.309-2.691-6-6-6-.673 0-1.318.116-1.923.322-2.045-1.495-4.531-2.322-7.077-2.322-6.617 0-12 5.383-12 12 0 5.845 4.285 10.836 9.941 11.822l-.924 4.898-.014 1.036-4.866 17.614c-.526 1.904.526 3.913 2.347 4.479.327.102.662.152.996.152.555 0 1.105-.141 1.61-.416.848-.464 1.46-1.247 1.725-2.206l3.973-14.379h5.212l-.002 13.499c0 1.931 1.57 3.501 3.501 3.501s3.501-1.57 3.501-3.501v-15.499c0-2.757-2.243-5-5-5h-.819l.333-2h13.486v13.277l7 11.666 7-11.666v-23.683c4.458-2.537 7-6.731 7-11.594 0-7.72-6.28-14-14-14zm-17 18c0 2.206-1.794 4-4 4s-4-1.794-4-4 1.794-4 4-4 4 1.794 4 4zm-12.834 7.989c-.056.002-.11.011-.166.011-2.206 0-4-1.794-4-4s1.794-4 4-4c1.287 0 2.486.621 3.239 1.662.31 1.073.912 2.019 1.713 2.755-1.961.613-3.648 1.879-4.786 3.572zm-10.166-3.989c0-5.514 4.486-10 10-10 1.811 0 3.586.503 5.128 1.424-1.028.871-1.759 2.081-2.019 3.457-.926-.562-1.993-.881-3.109-.881-3.309 0-6 2.691-6 6 0 3.028 2.256 5.532 5.175 5.936-.163.449-.296.913-.386 1.395l-.476 2.523c-4.727-.808-8.313-4.974-8.313-9.854zm6.887 36.847c-.119.433-.389.782-.757.983-.327.18-.703.218-1.054.108-.8-.248-1.254-1.161-1.012-2.035l4.078-14.761c.665.814 1.57 1.414 2.618 1.684zm13.113-18.847c1.654 0 3 1.346 3 3v15.499c0 .827-.674 1.501-1.501 1.501-.828 0-1.501-.674-1.501-1.501l.002-13.499c0-1.103-.897-2-2-2h-4.687-1.313c-1.654 0-3-1.346-3-3v-1.001l1.753-9.296c.623-3.305 3.517-5.703 6.879-5.703h18.368c.268 0 .519.104.707.293.186.185.286.432.29.693l.001.022c-.005.547-.45.992-.998.992h-14.306c-1.474 0-2.718 1.055-2.959 2.507l-1.916 11.493zm15.348 9.303 1.652-1.101 3 2 3-2 1.652 1.101-2.218 3.697h-4.868zm-2.348-19.303h-12.486l.194-1.165c.08-.484.495-.835.986-.835h11.306zm2 0h4v17.131l-2-1.333-2 1.333zm8 15.798-2 1.333v-17.131h4v17.131zm2-17.798h-9c1.301 0 2.401-.839 2.816-2h6.184zm-3.939-4h-2.121l-.5-8h3.121zm-21.214 10 .333-2h12.82v2zm18.919 21h2.468l-1.234 2.057zm6.961-31h-2.662l.5-8h2.435c2.206 0 4-1.794 4-4s-1.794-4-4-4h-.182c-2.107 0-3.861 1.647-3.992 3.75l-.14 2.25h-3.371l-.141-2.25c-.131-2.103-1.885-3.75-3.992-3.75h-.182c-2.206 0-4 1.794-4 4s1.794 4 4 4h2.436l.383 6.127c-.265-.075-.537-.127-.819-.127h-4.521c-2.269-2.13-3.479-4.882-3.479-8 0-6.617 5.383-12 12-12s12 5.383 12 12c0 4.278-2.232 7.816-6.273 10zm-2.038-10 .133-2.125c.066-1.051.943-1.875 1.996-1.875h.182c1.103 0 2 .897 2 2s-.897 2-2 2zm-7.378 0h-2.311c-1.103 0-2-.897-2-2s.897-2 2-2h.182c1.054 0 1.931.824 1.996 1.875z"/></svg>